<?xml version="1.0" encoding="utf-8"?>
<!-- Generator: Adobe Illustrator 24.1.0, SVG Export Plug-In . SVG Version: 6.00 Build 0)  -->
<svg version="1.1" id="Layer_1" xmlns="http://www.w3.org/2000/svg" xmlns:xlink="http://www.w3.org/1999/xlink" x="0px" y="0px"
	 viewBox="0 0 17.5 19.5" style="enable-background:new 0 0 17.5 19.5;" xml:space="preserve">
<style type="text/css">
	.st0{fill:none;stroke:#333333;stroke-width:1.5;stroke-linecap:round;stroke-linejoin:round;}
</style>
<g>
	<path class="st0" d="M8.8,8.8c2.2,0,4-1.8,4-4s-1.8-4-4-4s-4,1.8-4,4S6.5,8.8,8.8,8.8z"/>
</g>
<g>
	<path class="st0" d="M13.5,19.5c2.2,0,4-1.8,4-4s-1.8-4-4-4s-4,1.8-4,4S11.2,19.5,13.5,19.5z"/>
</g>
<g>
	<path class="st0" d="M4,19.5c2.2,0,4-1.8,4-4s-1.8-4-4-4s-4,1.8-4,4S1.7,19.5,4,19.5z"/>
</g>
</svg>
